<?xml version="1.0" encoding="utf-8"?>

<!DOCTYPE svg PUBLIC "-//W3C//DTD SVG 1.1//EN" "http://www.w3.org/Graphics/SVG/1.1/DTD/svg11.dtd">
<svg version="1.1" id="Layer_1" xmlns="http://www.w3.org/2000/svg" xmlns:xlink="http://www.w3.org/1999/xlink" x="0px" y="0px"
	 viewBox="-43.54 108.109 2007.081 743.871" enable-background="new -43.54 108.109 2007.081 743.871" xml:space="preserve">
<path d="M0,474.26c0.25-4.08-0.23-8.62,2.52-12c2.97,2.87,5.85,5.82,8.76,8.74c0.04,0.62,0.11,1.85,0.14,2.47
	c1.35,0,2.7,0.02,4.05,0.05c0.51-1.18,1.04-2.34,1.57-3.5c0.26,6.43,1.38,13.21-0.67,19.43c-0.14-0.84-0.44-2.51-0.59-3.35
	c-1.42,0-2.85,0.01-4.27,0.03c-0.09,0.62-0.27,1.87-0.36,2.5c-2.96,2.91-5.77,5.98-8.92,8.7c-2.21-4.2-2.06-9.02-2.23-13.63V474.26z
	"/>
<path d="M1920,476.76v-1.33c-7.92-11.34-23.92-15.87-36.85-11.43c-2.25,4.81-4.02,9.84-5.18,15.03c3.77,2.59,7.9,4.54,12,6.57
	c-0.71,2.37-2.16,4.43-3.15,6.68c-10.32-3.32-20.73-6.31-31.13-9.33c0.2-0.79,0.61-2.37,0.82-3.16c-0.12-1.42-0.19-2.83-0.23-4.24
	c4.7,1.01,9.48,1.63,14.31,1.69c1.25-5.1,2.6-10.18,3.91-15.27c-7.79-11.6-24.04-16.31-37.07-11.75c-2.23,4.82-4.03,9.82-5.14,15.02
	c3.91,2.55,8.01,4.81,12.33,6.62c-1.31,2.17-2.5,4.41-3.49,6.74c-10.26-3.02-20.53-5.99-30.75-9.09c0.26-0.91,0.77-2.72,1.03-3.63
	c-0.2-1.28-0.37-2.56-0.51-3.83c4.78,0.86,9.6,1.58,14.48,1.73c1-4.64,2.53-9.14,3.46-13.79c0.7-2.7-1.93-4.54-3.49-6.31
	c-7.97-7.24-19.71-10.46-30.22-7.94c-1.28,0.33-2.8,0.66-3.28,2.04c-2.37,4.38-3.72,9.23-4.69,14.1c3.99,2.41,8.09,4.68,12.39,6.53
	c-0.74,1.07-1.44,2.14-2.16,3.21c-0.49,1.23-0.99,2.46-1.44,3.7c-10.42-3.12-20.86-6.2-31.3-9.24c0.52-2.49,0.69-5.02,0.49-7.56
	c4.73,0.91,9.51,1.59,14.35,1.56c0.98-5.07,2.92-9.94,3.56-15.08c-1.84-4.22-5.83-7.06-9.7-9.27c-8.23-4.34-18.23-5.86-27.09-2.58
	c-2.26,4.8-4.02,9.82-5.13,15.01c3.64,2.8,8.32,4.19,11.85,6.94c-0.76,2.28-2.17,4.31-3.06,6.55c-10.6-2.92-21.06-6.32-31.68-9.16
	c0.4-2.6,0.47-5.23,0.45-7.84c4.66,0.98,9.4,1.6,14.19,1.71c1.4-5.06,2.63-10.17,4.06-15.23c-5.96-9.17-17.27-13.76-27.92-13.55
	c-3.1,0.28-6.6,0.21-9.15,2.17c-2.57,4.38-4.13,9.36-5,14.35c3.4,3.19,7.9,4.84,12.07,6.8c-1.3,2.32-2.49,4.69-3.5,7.14
	c-10.06-2.92-20.09-5.88-30.1-8.93c0.56-2.64,0.86-5.32,0.69-8c4.63,0.97,9.34,1.51,14.08,1.86c1.27-5,2.95-9.91,3.8-15
	c-0.84-3.24-3.84-5.42-6.32-7.46c-7.93-5.38-18.22-8.17-27.65-5.59c-1.2,0.34-2.62,0.58-3.14,1.87c-2.43,4.34-3.65,9.22-4.82,14.02
	c3.93,2.5,8,4.81,12.32,6.6c-1.46,2.35-2.72,4.82-3.63,7.43c-8.79-2.72-17.68-5.08-26.42-7.94c-6.71-2.12-14.91-3-20.7,1.82
	c-7.44,6.22-11.55,16.01-20.4,20.64c-4.62,2.58-10.05,2.45-15.16,2.31c-27.32-0.42-54.65-0.26-81.96-0.86
	c-30.68-0.67-61.37-0.4-92.04-1.11c-22.01-0.52-44.01-0.38-66.02-0.6c-29.97-0.91-59.96-0.68-89.94-1.12
	c-26.01-0.69-52.02-0.72-78.04-0.85c-27.67-0.69-55.35-0.93-83.03-0.99c-29.67-0.71-59.34-0.93-89.02-1.03
	c-33.32-1.01-66.65-0.65-99.97-1.32c-28.31-0.77-56.64-0.3-84.95-1.02c-6.12-0.34-12.83,0.96-18.31-2.5
	c-5.69-2.98-10.08-8.75-10.2-15.34c-0.29-9.96,4.41-19.11,8.65-27.82c9.85-18.73,18.14-38.3,24.29-58.55
	c0.06,1.07,0.2,3.22,0.27,4.29c2.26-0.31,3.53-2.27,4.83-3.9l-0.04-1.19c1.45,0.22,2.9,0.43,4.36,0.66
	c-0.06,0.65-0.18,1.97-0.24,2.62c2.24,3.44,4.48,6.88,6.77,10.29c1.51-1.32,2.84-2.89,3.25-4.91c2.07-7.72,3.67-15.57,4.73-23.49
	c0.43-2.09-0.19-4.12-1.01-6.01c-3.78,2.95-8.71,4.74-11.25,9.03c-1.26-0.21-2.49-0.41-3.72-0.61c-0.24-1.17-0.45-2.33-0.7-3.49
	c-0.01-0.59-0.05-1.75-0.07-2.33c-0.55-0.09-1.65-0.25-2.2-0.34c-0.65,1.08-1.26,2.17-1.91,3.25c0.96-12.17,1.15-24.59-2.14-36.46
	c-5.22-19.9-18.33-37.75-36.12-48.19c-13.33-7.87-28.8-11.44-44.14-12.46c-25.07-1.5-50.06,3.16-74.14,9.78
	c-17.3,5.02-34.35,10.96-50.87,18.12c-19.59,9-40.5,15.44-62.01,17.48c-23.49,2.5-47.42-0.51-69.8-7.94
	c-16.25-5.2-31.36-13.24-46.85-20.27c-31.27-14.94-62.3-30.49-94.57-43.21c-37.32-14.56-76.51-26.25-116.84-27.09
	c-31.62-0.82-63.66,6.08-91.4,21.5c-26.97,14.76-49.57,36.52-67.95,60.98c-7.9,10.84-13.5,23.18-18.02,35.77
	c-7.97,22.49-12.45,46.04-15.72,69.62c-4.58,33.78-6.36,67.87-7.01,101.93c-0.04,6.47-0.39,12.95,0,19.42
	c-0.7-1.83-1.32-3.93-3.75-3.82c0.59,8.11,0.49,16.23,0.07,24.34c2.31,0.05,3.02-1.87,3.75-3.62c-0.61,19.64,0.07,39.32,0.64,58.97
	c1.78,41.63,4.97,83.7,16.98,123.8c5.77,18.61,13.62,37.01,26.22,52.08c18.75,22.15,41.29,41.4,67.22,54.65
	c20.19,10.33,42.34,16.75,64.89,19.06c39.18,4,78.58-3.4,115.87-15.15c40.28-12.83,78.84-30.5,116.6-49.39
	c11.27-6.01,23.55-9.71,35.48-14.15c20.31-7,41.39-12.91,63.05-12.92c24.93-0.34,49.27,6.62,72.39,15.39
	c17.2,6.94,34.33,14.14,52.06,19.65c28.3,8.65,58.03,14.83,87.75,11.92c20.05-1.83,40.26-9.02,54.83-23.33
	c6.8-6.29,10.83-15.72,9.57-25.01c-1.45-10.43-7.58-20.39-16.84-25.63c-11.65-7.3-25-10.92-37.95-15.14
	c-16.18-5.46-31.73-13.14-45.16-23.75c-4.96-4.01-10.09-7.97-13.83-13.2c-9.83-12.5-17.74-27.81-16.85-44.13
	c0.58-13.78,8.81-26.41,20.14-33.93c9.49-6.27,20.55-10.56,31.95-11.29c24.34-0.02,48.67-0.72,73.01-1.05
	c14.66,0.09,29.3-0.21,43.96-0.46c30-0.88,60.02-0.27,90.02-1.41c16.15,0.15,32.29-0.55,48.44-0.21
	c29.16-1.24,58.36-0.71,87.54-1.42c26.66-0.74,53.33-0.38,79.99-1.11c23.68-0.66,47.38-0.21,71.06-0.96c22.99-0.64,46-0.26,69-0.88
	c30.96-0.8,61.94-0.42,92.9-1.42c24.02-0.29,48.05-0.1,72.05-0.94c25.01-0.36,50.03-0.15,75.03-1.01
	c15.99-0.17,31.99-0.36,47.99-0.29c26.28-1.73,52.72,2.11,77.94,9.5c15.73,4.53,30.85,10.85,46.18,16.53
	c19.44,7.04,39.98,12.52,60.84,11.28c13.13-0.6,26.08-4.2,37.77-10.2c4.9-2.3,9.49-6.43,15.27-5.89
	c13.66,1.44,22.75,12.99,34.7,18.38c11.06,5.31,24.29,6.64,35.87,2.19c12.4-4.62,23.53-13.69,28.73-26.07
	c4.28-9.8,4.63-21.36,0.49-31.26c-2.55-5.92-8.11-9.76-13.68-12.54c0.39-1.47,0.8-2.94,1.23-4.4c-0.22-1.26-0.42-2.51-0.59-3.76
	c4.77,0.9,9.58,1.49,14.44,1.73C1917.44,486.34,1918.75,481.56,1920,476.76z"/>
</svg>
